<mxfile host="app.diagrams.net" modified="2024-01-17T10:53:05.602Z" agent="Mozilla/5.0 (X11; Linux x86_64) AppleWebKit/537.36 (KHTML, like Gecko) Chrome/120.0.0.0 Safari/537.36" etag="KEZf4oX4N840F6gfASHv" version="22.1.16" type="device">
  <diagram name="Page-1" id="QpxjI3j2mfLiXVmrUpM7">
    <mxGraphModel dx="1302" dy="719" grid="1" gridSize="10" guides="1" tooltips="1" connect="1" arrows="1" fold="1" page="1" pageScale="1" pageWidth="1200" pageHeight="1600" math="0" shadow="0">
      <root>
        <mxCell id="0" />
        <mxCell id="1" parent="0" />
        <mxCell id="GuqlwUtFJqod2buWdt0B-19" value="" style="rounded=1;whiteSpace=wrap;html=1;fillColor=none;dashed=1;arcSize=4;" vertex="1" parent="1">
          <mxGeometry x="480" y="280" width="320" height="340" as="geometry" />
        </mxCell>
        <mxCell id="GuqlwUtFJqod2buWdt0B-1" value="Depth Image" style="rounded=0;whiteSpace=wrap;html=1;" vertex="1" parent="1">
          <mxGeometry x="350" y="402.5" width="90" height="55" as="geometry" />
        </mxCell>
        <mxCell id="GuqlwUtFJqod2buWdt0B-2" value="Average Depth Image" style="rounded=0;whiteSpace=wrap;html=1;" vertex="1" parent="1">
          <mxGeometry x="850" y="432.5" width="90" height="55" as="geometry" />
        </mxCell>
        <mxCell id="GuqlwUtFJqod2buWdt0B-3" value="Pixel-wise&amp;nbsp;Averaging" style="ellipse;whiteSpace=wrap;html=1;" vertex="1" parent="1">
          <mxGeometry x="580" y="390" width="120" height="80" as="geometry" />
        </mxCell>
        <mxCell id="GuqlwUtFJqod2buWdt0B-5" value="" style="endArrow=classic;html=1;rounded=0;" edge="1" parent="1" source="GuqlwUtFJqod2buWdt0B-3" target="GuqlwUtFJqod2buWdt0B-2">
          <mxGeometry width="50" height="50" relative="1" as="geometry">
            <mxPoint x="720" y="480" as="sourcePoint" />
            <mxPoint x="770" y="430" as="targetPoint" />
          </mxGeometry>
        </mxCell>
        <mxCell id="GuqlwUtFJqod2buWdt0B-6" value="Accumulated Data" style="rounded=0;whiteSpace=wrap;html=1;dashed=1;" vertex="1" parent="1">
          <mxGeometry x="595" y="300" width="90" height="55" as="geometry" />
        </mxCell>
        <mxCell id="GuqlwUtFJqod2buWdt0B-7" value="" style="endArrow=classic;startArrow=classic;html=1;rounded=0;dashed=1;" edge="1" parent="1" source="GuqlwUtFJqod2buWdt0B-3" target="GuqlwUtFJqod2buWdt0B-6">
          <mxGeometry width="50" height="50" relative="1" as="geometry">
            <mxPoint x="720" y="480" as="sourcePoint" />
            <mxPoint x="770" y="430" as="targetPoint" />
          </mxGeometry>
        </mxCell>
        <mxCell id="GuqlwUtFJqod2buWdt0B-8" value="Mean" style="rounded=1;whiteSpace=wrap;html=1;" vertex="1" parent="1">
          <mxGeometry x="500" y="530" width="80" height="60" as="geometry" />
        </mxCell>
        <mxCell id="GuqlwUtFJqod2buWdt0B-10" value="Median" style="rounded=1;whiteSpace=wrap;html=1;" vertex="1" parent="1">
          <mxGeometry x="600" y="530" width="80" height="60" as="geometry" />
        </mxCell>
        <mxCell id="GuqlwUtFJqod2buWdt0B-11" value="Exponential Weighted Average" style="rounded=1;whiteSpace=wrap;html=1;" vertex="1" parent="1">
          <mxGeometry x="700" y="530" width="80" height="60" as="geometry" />
        </mxCell>
        <mxCell id="GuqlwUtFJqod2buWdt0B-12" value="Statistics" style="rounded=0;whiteSpace=wrap;html=1;" vertex="1" parent="1">
          <mxGeometry x="850" y="372.5" width="90" height="55" as="geometry" />
        </mxCell>
        <mxCell id="GuqlwUtFJqod2buWdt0B-13" value="" style="endArrow=classic;html=1;rounded=0;" edge="1" parent="1" source="GuqlwUtFJqod2buWdt0B-3" target="GuqlwUtFJqod2buWdt0B-12">
          <mxGeometry width="50" height="50" relative="1" as="geometry">
            <mxPoint x="680" y="540" as="sourcePoint" />
            <mxPoint x="730" y="490" as="targetPoint" />
          </mxGeometry>
        </mxCell>
        <mxCell id="GuqlwUtFJqod2buWdt0B-16" value="" style="endArrow=none;dashed=1;html=1;rounded=0;" edge="1" parent="1" source="GuqlwUtFJqod2buWdt0B-8" target="GuqlwUtFJqod2buWdt0B-3">
          <mxGeometry width="50" height="50" relative="1" as="geometry">
            <mxPoint x="680" y="620" as="sourcePoint" />
            <mxPoint x="730" y="570" as="targetPoint" />
          </mxGeometry>
        </mxCell>
        <mxCell id="GuqlwUtFJqod2buWdt0B-17" value="" style="endArrow=none;dashed=1;html=1;rounded=0;" edge="1" parent="1" source="GuqlwUtFJqod2buWdt0B-10" target="GuqlwUtFJqod2buWdt0B-3">
          <mxGeometry width="50" height="50" relative="1" as="geometry">
            <mxPoint x="680" y="620" as="sourcePoint" />
            <mxPoint x="730" y="570" as="targetPoint" />
          </mxGeometry>
        </mxCell>
        <mxCell id="GuqlwUtFJqod2buWdt0B-18" value="" style="endArrow=none;dashed=1;html=1;rounded=0;" edge="1" parent="1" source="GuqlwUtFJqod2buWdt0B-11" target="GuqlwUtFJqod2buWdt0B-3">
          <mxGeometry width="50" height="50" relative="1" as="geometry">
            <mxPoint x="680" y="620" as="sourcePoint" />
            <mxPoint x="730" y="570" as="targetPoint" />
          </mxGeometry>
        </mxCell>
        <mxCell id="GuqlwUtFJqod2buWdt0B-20" value="ROS" style="ellipse;shape=cloud;whiteSpace=wrap;html=1;" vertex="1" parent="1">
          <mxGeometry x="190" y="252.5" width="140" height="100" as="geometry" />
        </mxCell>
        <mxCell id="GuqlwUtFJqod2buWdt0B-21" value="" style="endArrow=classic;html=1;rounded=0;" edge="1" parent="1" source="GuqlwUtFJqod2buWdt0B-20" target="GuqlwUtFJqod2buWdt0B-1">
          <mxGeometry width="50" height="50" relative="1" as="geometry">
            <mxPoint x="680" y="360" as="sourcePoint" />
            <mxPoint x="730" y="310" as="targetPoint" />
          </mxGeometry>
        </mxCell>
        <mxCell id="GuqlwUtFJqod2buWdt0B-22" value="/tf" style="rounded=0;whiteSpace=wrap;html=1;" vertex="1" parent="1">
          <mxGeometry x="375" y="90" width="40" height="30" as="geometry" />
        </mxCell>
        <mxCell id="GuqlwUtFJqod2buWdt0B-23" value="" style="endArrow=classic;html=1;rounded=0;" edge="1" parent="1" source="GuqlwUtFJqod2buWdt0B-20" target="GuqlwUtFJqod2buWdt0B-22">
          <mxGeometry width="50" height="50" relative="1" as="geometry">
            <mxPoint x="680" y="360" as="sourcePoint" />
            <mxPoint x="730" y="310" as="targetPoint" />
          </mxGeometry>
        </mxCell>
        <mxCell id="GuqlwUtFJqod2buWdt0B-24" value="/clock" style="rounded=0;whiteSpace=wrap;html=1;" vertex="1" parent="1">
          <mxGeometry x="375" y="135" width="40" height="30" as="geometry" />
        </mxCell>
        <mxCell id="GuqlwUtFJqod2buWdt0B-25" value="" style="endArrow=classic;html=1;rounded=0;" edge="1" parent="1" source="GuqlwUtFJqod2buWdt0B-20" target="GuqlwUtFJqod2buWdt0B-24">
          <mxGeometry width="50" height="50" relative="1" as="geometry">
            <mxPoint x="680" y="360" as="sourcePoint" />
            <mxPoint x="730" y="310" as="targetPoint" />
          </mxGeometry>
        </mxCell>
        <mxCell id="GuqlwUtFJqod2buWdt0B-27" value="Rules" style="rounded=1;whiteSpace=wrap;html=1;verticalAlign=top;" vertex="1" parent="1">
          <mxGeometry x="480" y="90" width="320" height="150" as="geometry" />
        </mxCell>
        <mxCell id="GuqlwUtFJqod2buWdt0B-28" value="TF Movement Detection" style="rounded=1;whiteSpace=wrap;html=1;" vertex="1" parent="1">
          <mxGeometry x="500" y="120" width="90" height="50" as="geometry" />
        </mxCell>
        <mxCell id="GuqlwUtFJqod2buWdt0B-29" value="Timeout" style="rounded=1;whiteSpace=wrap;html=1;" vertex="1" parent="1">
          <mxGeometry x="595" y="120" width="90" height="50" as="geometry" />
        </mxCell>
        <mxCell id="GuqlwUtFJqod2buWdt0B-31" value="" style="endArrow=classic;html=1;rounded=0;" edge="1" parent="1" source="GuqlwUtFJqod2buWdt0B-22" target="GuqlwUtFJqod2buWdt0B-27">
          <mxGeometry width="50" height="50" relative="1" as="geometry">
            <mxPoint x="680" y="360" as="sourcePoint" />
            <mxPoint x="730" y="310" as="targetPoint" />
          </mxGeometry>
        </mxCell>
        <mxCell id="GuqlwUtFJqod2buWdt0B-32" value="" style="endArrow=classic;html=1;rounded=0;" edge="1" parent="1" source="GuqlwUtFJqod2buWdt0B-24" target="GuqlwUtFJqod2buWdt0B-27">
          <mxGeometry width="50" height="50" relative="1" as="geometry">
            <mxPoint x="680" y="360" as="sourcePoint" />
            <mxPoint x="730" y="310" as="targetPoint" />
          </mxGeometry>
        </mxCell>
        <mxCell id="GuqlwUtFJqod2buWdt0B-33" value="Check Rules" style="ellipse;whiteSpace=wrap;html=1;aspect=fixed;" vertex="1" parent="1">
          <mxGeometry x="500" y="405.94" width="48.12" height="48.12" as="geometry" />
        </mxCell>
        <mxCell id="GuqlwUtFJqod2buWdt0B-34" value="" style="endArrow=classic;html=1;rounded=0;" edge="1" parent="1" source="GuqlwUtFJqod2buWdt0B-1" target="GuqlwUtFJqod2buWdt0B-33">
          <mxGeometry width="50" height="50" relative="1" as="geometry">
            <mxPoint x="680" y="360" as="sourcePoint" />
            <mxPoint x="730" y="310" as="targetPoint" />
          </mxGeometry>
        </mxCell>
        <mxCell id="GuqlwUtFJqod2buWdt0B-35" value="" style="endArrow=classic;html=1;rounded=0;" edge="1" parent="1" source="GuqlwUtFJqod2buWdt0B-33" target="GuqlwUtFJqod2buWdt0B-3">
          <mxGeometry width="50" height="50" relative="1" as="geometry">
            <mxPoint x="680" y="380" as="sourcePoint" />
            <mxPoint x="730" y="330" as="targetPoint" />
          </mxGeometry>
        </mxCell>
        <mxCell id="GuqlwUtFJqod2buWdt0B-37" value="Reset&lt;br&gt;Signal" style="endArrow=classic;html=1;rounded=0;exitX=0.25;exitY=1;exitDx=0;exitDy=0;" edge="1" parent="1" source="GuqlwUtFJqod2buWdt0B-27" target="GuqlwUtFJqod2buWdt0B-3">
          <mxGeometry width="50" height="50" relative="1" as="geometry">
            <mxPoint x="680" y="360" as="sourcePoint" />
            <mxPoint x="730" y="310" as="targetPoint" />
            <Array as="points">
              <mxPoint x="560" y="340" />
            </Array>
          </mxGeometry>
        </mxCell>
        <mxCell id="GuqlwUtFJqod2buWdt0B-38" value="" style="endArrow=classic;startArrow=classic;html=1;rounded=0;entryX=0.135;entryY=1.009;entryDx=0;entryDy=0;entryPerimeter=0;" edge="1" parent="1" source="GuqlwUtFJqod2buWdt0B-33" target="GuqlwUtFJqod2buWdt0B-27">
          <mxGeometry width="50" height="50" relative="1" as="geometry">
            <mxPoint x="680" y="360" as="sourcePoint" />
            <mxPoint x="730" y="310" as="targetPoint" />
          </mxGeometry>
        </mxCell>
        <mxCell id="GuqlwUtFJqod2buWdt0B-40" value="Color Image" style="rounded=0;whiteSpace=wrap;html=1;" vertex="1" parent="1">
          <mxGeometry x="350" y="225" width="90" height="55" as="geometry" />
        </mxCell>
        <mxCell id="GuqlwUtFJqod2buWdt0B-41" value="" style="endArrow=classic;html=1;rounded=0;" edge="1" parent="1" source="GuqlwUtFJqod2buWdt0B-20" target="GuqlwUtFJqod2buWdt0B-40">
          <mxGeometry width="50" height="50" relative="1" as="geometry">
            <mxPoint x="680" y="360" as="sourcePoint" />
            <mxPoint x="730" y="310" as="targetPoint" />
          </mxGeometry>
        </mxCell>
        <mxCell id="GuqlwUtFJqod2buWdt0B-42" value="" style="endArrow=classic;html=1;rounded=0;" edge="1" parent="1" source="GuqlwUtFJqod2buWdt0B-40" target="GuqlwUtFJqod2buWdt0B-27">
          <mxGeometry width="50" height="50" relative="1" as="geometry">
            <mxPoint x="680" y="360" as="sourcePoint" />
            <mxPoint x="730" y="310" as="targetPoint" />
          </mxGeometry>
        </mxCell>
        <mxCell id="GuqlwUtFJqod2buWdt0B-43" value="Color-based Motion Detection" style="rounded=1;whiteSpace=wrap;html=1;" vertex="1" parent="1">
          <mxGeometry x="500" y="180" width="90" height="50" as="geometry" />
        </mxCell>
        <mxCell id="GuqlwUtFJqod2buWdt0B-45" value="Reset Service" style="rounded=1;whiteSpace=wrap;html=1;" vertex="1" parent="1">
          <mxGeometry x="690" y="120" width="90" height="50" as="geometry" />
        </mxCell>
        <mxCell id="GuqlwUtFJqod2buWdt0B-47" value="/reset" style="rounded=1;whiteSpace=wrap;html=1;dashed=1;" vertex="1" parent="1">
          <mxGeometry x="375" y="177.5" width="40" height="25" as="geometry" />
        </mxCell>
        <mxCell id="GuqlwUtFJqod2buWdt0B-48" value="" style="endArrow=classic;html=1;rounded=0;" edge="1" parent="1" source="GuqlwUtFJqod2buWdt0B-20" target="GuqlwUtFJqod2buWdt0B-47">
          <mxGeometry width="50" height="50" relative="1" as="geometry">
            <mxPoint x="680" y="440" as="sourcePoint" />
            <mxPoint x="730" y="390" as="targetPoint" />
          </mxGeometry>
        </mxCell>
        <mxCell id="GuqlwUtFJqod2buWdt0B-49" value="" style="endArrow=classic;html=1;rounded=0;" edge="1" parent="1" source="GuqlwUtFJqod2buWdt0B-47" target="GuqlwUtFJqod2buWdt0B-27">
          <mxGeometry width="50" height="50" relative="1" as="geometry">
            <mxPoint x="680" y="440" as="sourcePoint" />
            <mxPoint x="730" y="390" as="targetPoint" />
          </mxGeometry>
        </mxCell>
        <mxCell id="GuqlwUtFJqod2buWdt0B-50" value="Accumulated Frame Limit" style="rounded=1;whiteSpace=wrap;html=1;" vertex="1" parent="1">
          <mxGeometry x="595" y="180" width="90" height="50" as="geometry" />
        </mxCell>
        <mxCell id="GuqlwUtFJqod2buWdt0B-52" value="Timestamp Strategy" style="rounded=1;whiteSpace=wrap;html=1;" vertex="1" parent="1">
          <mxGeometry x="700" y="297.5" width="80" height="60" as="geometry" />
        </mxCell>
        <mxCell id="GuqlwUtFJqod2buWdt0B-53" value="" style="endArrow=none;dashed=1;html=1;rounded=0;" edge="1" parent="1" source="GuqlwUtFJqod2buWdt0B-3" target="GuqlwUtFJqod2buWdt0B-52">
          <mxGeometry width="50" height="50" relative="1" as="geometry">
            <mxPoint x="680" y="440" as="sourcePoint" />
            <mxPoint x="730" y="390" as="targetPoint" />
          </mxGeometry>
        </mxCell>
        <mxCell id="GuqlwUtFJqod2buWdt0B-54" value="Skip Frames" style="rounded=1;whiteSpace=wrap;html=1;" vertex="1" parent="1">
          <mxGeometry x="690" y="180" width="90" height="50" as="geometry" />
        </mxCell>
      </root>
    </mxGraphModel>
  </diagram>
</mxfile>
